<svg xmlns="http://www.w3.org/2000/svg" viewBox="0 0 512 588"><defs><style>.cls-1,.cls-2,.cls-3,.cls-4{fill:none;stroke-miterlimit:10;stroke-width:10px;}.cls-1,.cls-2{stroke:#606060;}.cls-1,.cls-4{stroke-linecap:round;}.cls-3,.cls-4{stroke:#fff;}</style></defs><title>IcosohedronBlackandWhite</title><g id="Layer_2" data-name="Layer 2"><line class="cls-1" x1="5" y1="149" x2="256" y2="119"/><line class="cls-1" x1="256" y1="5" x2="256" y2="119"/><line class="cls-1" x1="506" y1="149" x2="256" y2="119"/><line class="cls-2" x1="256" y1="119" x2="409" y2="381"/><line class="cls-2" x1="506" y1="149" x2="409" y2="381"/><line class="cls-1" x1="507" y1="441" x2="409" y2="381"/><line class="cls-1" x1="5" y1="149" x2="105" y2="381"/><line class="cls-1" x1="5" y1="442" x2="105" y2="381"/><line class="cls-1" x1="409" y1="381" x2="105" y2="381"/><line class="cls-2" x1="256" y1="119" x2="105" y2="381"/><line class="cls-1" x1="409" y1="381" x2="256" y2="583"/><line class="cls-2" x1="105" y1="381" x2="256" y2="583"/><path class="cls-1" d="M471.2,226.52" transform="translate(-244 -205)"/></g><g id="Layer_3" data-name="Layer 3"><line class="cls-3" x1="256" y1="5" x2="409" y2="207"/><line class="cls-4" x1="506" y1="149" x2="409" y2="207"/><line class="cls-4" x1="507" y1="441" x2="409" y2="207"/><line class="cls-4" x1="256" y1="583" x2="256" y2="469"/><line class="cls-4" x1="507" y1="441" x2="256" y2="469"/><line class="cls-3" x1="409" y1="207" x2="256" y2="469"/><line class="cls-4" x1="5" y1="442" x2="256" y2="469"/><line class="cls-4" x1="5" y1="149" x2="105" y2="207"/><line class="cls-3" x1="409" y1="207" x2="105" y2="207"/><line class="cls-3" x1="256" y1="469" x2="105" y2="207"/><line class="cls-4" x1="5" y1="442" x2="105" y2="207"/><line class="cls-4" x1="105" y1="207" x2="256" y2="5"/><line class="cls-4" x1="256" y1="5" x2="506" y2="149"/><line class="cls-4" x1="507" y1="441" x2="506" y2="149"/><line class="cls-4" x1="256" y1="583" x2="507" y2="441"/><line class="cls-4" x1="5" y1="442" x2="256" y2="583"/><line class="cls-4" x1="5" y1="149" x2="5" y2="442"/><line class="cls-4" x1="256" y1="5" x2="5" y2="149"/></g></svg>