<svg xmlns="http://www.w3.org/2000/svg" viewBox="0 0 531.01 613"><defs><style>.cls-1,.cls-2,.cls-3,.cls-4,.cls-5,.cls-6,.cls-7,.cls-8{fill:none;stroke-miterlimit:10;stroke-width:10px;}.cls-1,.cls-2{stroke:#7c93f7;}.cls-1,.cls-3,.cls-6,.cls-7{stroke-linecap:round;}.cls-3,.cls-4{stroke:#000b3a;}.cls-5,.cls-6{stroke:#00156b;}.cls-7,.cls-8{stroke:#0025ff;}</style></defs><title>IcosohedronBlue</title><g id="Layer_5" data-name="Layer 5"><line class="cls-1" x1="21.06" y1="164.4" x2="266.08" y2="23.83"/><line class="cls-2" x1="510.13" y1="164.4" x2="266.08" y2="23.83"/><line class="cls-2" x1="21.06" y1="164.4" x2="266.08" y2="135.12"/><line class="cls-2" x1="266.08" y1="23.83" x2="266.08" y2="135.12"/><line class="cls-1" x1="510.13" y1="164.4" x2="266.08" y2="135.12"/><line class="cls-2" x1="511.1" y1="449.45" x2="510.13" y2="164.4"/><line class="cls-1" x1="266.08" y1="591" x2="511.1" y2="449.45"/><line class="cls-1" x1="21.06" y1="450.43" x2="266.08" y2="591"/><line class="cls-2" x1="21.06" y1="164.4" x2="21.06" y2="450.43"/><line class="cls-2" x1="266.08" y1="135.12" x2="415.44" y2="390.88"/><line class="cls-2" x1="510.13" y1="164.4" x2="415.44" y2="390.88"/><line class="cls-2" x1="511.1" y1="449.45" x2="415.44" y2="390.88"/><line class="cls-2" x1="21.06" y1="164.4" x2="118.67" y2="390.88"/><line class="cls-2" x1="21.06" y1="450.43" x2="118.67" y2="390.88"/><line class="cls-1" x1="415.44" y1="390.88" x2="118.67" y2="390.88"/><line class="cls-2" x1="266.08" y1="135.12" x2="118.67" y2="390.88"/><line class="cls-2" x1="415.44" y1="390.88" x2="266.08" y2="588.07"/><line class="cls-2" x1="118.67" y1="390.88" x2="266.08" y2="588.07"/><path class="cls-1" d="M472.91,234" transform="translate(-234.94 -194)"/><line class="cls-1" x1="23.01" y1="163.43" x2="268.03" y2="22.86"/><line class="cls-2" x1="512.08" y1="163.43" x2="268.03" y2="22.86"/><line class="cls-2" x1="23.01" y1="163.43" x2="268.03" y2="134.14"/><line class="cls-2" x1="268.03" y1="22.86" x2="268.03" y2="134.14"/><line class="cls-1" x1="512.08" y1="163.43" x2="268.03" y2="134.14"/><line class="cls-2" x1="513.06" y1="448.48" x2="512.08" y2="163.43"/><line class="cls-1" x1="268.03" y1="590.02" x2="513.06" y2="448.48"/><line class="cls-1" x1="23.01" y1="449.45" x2="268.03" y2="590.02"/><line class="cls-2" x1="23.01" y1="163.43" x2="23.01" y2="449.45"/><line class="cls-2" x1="268.03" y1="134.14" x2="417.39" y2="389.9"/><line class="cls-2" x1="512.08" y1="163.43" x2="417.39" y2="389.9"/><line class="cls-2" x1="513.06" y1="448.48" x2="417.39" y2="389.9"/><line class="cls-2" x1="23.01" y1="163.43" x2="120.63" y2="389.9"/><line class="cls-2" x1="23.01" y1="449.45" x2="120.63" y2="389.9"/><line class="cls-1" x1="417.39" y1="389.9" x2="120.63" y2="389.9"/><line class="cls-2" x1="268.03" y1="134.14" x2="120.63" y2="389.9"/><line class="cls-2" x1="417.39" y1="389.9" x2="268.03" y2="587.1"/><line class="cls-2" x1="120.63" y1="389.9" x2="268.03" y2="587.1"/><path class="cls-1" d="M474.86,233" transform="translate(-234.94 -194)"/></g><g id="Layer_4" data-name="Layer 4"><line class="cls-3" x1="5" y1="154.45" x2="265.5" y2="5"/><line class="cls-4" x1="524.97" y1="154.45" x2="265.5" y2="5"/><line class="cls-4" x1="5" y1="154.45" x2="265.5" y2="123.32"/><line class="cls-4" x1="265.5" y1="5" x2="265.5" y2="123.32"/><line class="cls-3" x1="524.97" y1="154.45" x2="265.5" y2="123.32"/><line class="cls-4" x1="526.01" y1="457.51" x2="524.97" y2="154.45"/><line class="cls-3" x1="265.5" y1="608" x2="526.01" y2="457.51"/><line class="cls-3" x1="5" y1="458.55" x2="265.5" y2="608"/><line class="cls-4" x1="5" y1="154.45" x2="5" y2="458.55"/><line class="cls-4" x1="265.5" y1="123.32" x2="424.3" y2="395.24"/><line class="cls-4" x1="524.97" y1="154.45" x2="424.3" y2="395.24"/><line class="cls-4" x1="526.01" y1="457.51" x2="424.3" y2="395.24"/><line class="cls-4" x1="5" y1="154.45" x2="108.79" y2="395.24"/><line class="cls-4" x1="5" y1="458.55" x2="108.79" y2="395.24"/><line class="cls-3" x1="424.3" y1="395.24" x2="108.79" y2="395.24"/><line class="cls-4" x1="265.5" y1="123.32" x2="108.79" y2="395.24"/><line class="cls-4" x1="424.3" y1="395.24" x2="265.5" y2="604.89"/><line class="cls-4" x1="108.79" y1="395.24" x2="265.5" y2="604.89"/><path class="cls-3" d="M470.56,216.15" transform="translate(-234.94 -194)"/></g><g id="Layer_3" data-name="Layer 3"><line class="cls-5" x1="265.06" y1="16" x2="418.06" y2="218"/><line class="cls-6" x1="515.06" y1="160" x2="418.06" y2="218"/><line class="cls-5" x1="516.06" y1="452" x2="418.06" y2="218"/><line class="cls-5" x1="265.06" y1="594" x2="265.06" y2="480"/><line class="cls-5" x1="516.06" y1="452" x2="265.06" y2="480"/><line class="cls-5" x1="418.06" y1="218" x2="265.06" y2="480"/><line class="cls-5" x1="14.06" y1="453" x2="265.06" y2="480"/><line class="cls-5" x1="14.06" y1="160" x2="114.06" y2="218"/><line class="cls-5" x1="418.06" y1="218" x2="114.06" y2="218"/><line class="cls-5" x1="265.06" y1="480" x2="114.06" y2="218"/><line class="cls-5" x1="14.06" y1="453" x2="114.06" y2="218"/><line class="cls-6" x1="114.06" y1="218" x2="265.06" y2="16"/></g><g id="Layer_2" data-name="Layer 2"><line class="cls-7" x1="14.06" y1="160" x2="265.06" y2="16"/><line class="cls-8" x1="515.06" y1="160" x2="265.06" y2="16"/><line class="cls-8" x1="14.06" y1="160" x2="265.06" y2="130"/><line class="cls-8" x1="265.06" y1="16" x2="265.06" y2="130"/><line class="cls-7" x1="515.06" y1="160" x2="265.06" y2="130"/><line class="cls-8" x1="516.06" y1="452" x2="515.06" y2="160"/><line class="cls-7" x1="265.06" y1="597" x2="516.06" y2="452"/><line class="cls-7" x1="14.06" y1="453" x2="265.06" y2="597"/><line class="cls-8" x1="14.06" y1="160" x2="14.06" y2="453"/><line class="cls-8" x1="265.06" y1="130" x2="418.06" y2="392"/><line class="cls-8" x1="515.06" y1="160" x2="418.06" y2="392"/><line class="cls-8" x1="516.06" y1="452" x2="418.06" y2="392"/><line class="cls-8" x1="14.06" y1="160" x2="114.06" y2="392"/><line class="cls-8" x1="14.06" y1="453" x2="114.06" y2="392"/><line class="cls-7" x1="418.06" y1="392" x2="114.06" y2="392"/><line class="cls-8" x1="265.06" y1="130" x2="114.06" y2="392"/><line class="cls-8" x1="418.06" y1="392" x2="265.06" y2="594"/><line class="cls-8" x1="114.06" y1="392" x2="265.06" y2="594"/><path class="cls-7" d="M471.2,226.52" transform="translate(-234.94 -194)"/><line class="cls-7" x1="16.06" y1="159" x2="267.06" y2="15"/><line class="cls-8" x1="517.06" y1="159" x2="267.06" y2="15"/><line class="cls-8" x1="16.06" y1="159" x2="267.06" y2="129"/><line class="cls-8" x1="267.06" y1="15" x2="267.06" y2="129"/><line class="cls-7" x1="517.06" y1="159" x2="267.06" y2="129"/><line class="cls-8" x1="518.06" y1="451" x2="517.06" y2="159"/><line class="cls-7" x1="267.06" y1="596" x2="518.06" y2="451"/><line class="cls-7" x1="16.06" y1="452" x2="267.06" y2="596"/><line class="cls-8" x1="16.06" y1="159" x2="16.06" y2="452"/><line class="cls-8" x1="267.06" y1="129" x2="420.06" y2="391"/><line class="cls-8" x1="517.06" y1="159" x2="420.06" y2="391"/><line class="cls-8" x1="518.06" y1="451" x2="420.06" y2="391"/><line class="cls-8" x1="16.06" y1="159" x2="116.06" y2="391"/><line class="cls-8" x1="16.06" y1="452" x2="116.06" y2="391"/><line class="cls-7" x1="420.06" y1="391" x2="116.06" y2="391"/><line class="cls-8" x1="267.06" y1="129" x2="116.06" y2="391"/><line class="cls-8" x1="420.06" y1="391" x2="267.06" y2="593"/><line class="cls-8" x1="116.06" y1="391" x2="267.06" y2="593"/><path class="cls-7" d="M473.2,225.52" transform="translate(-234.94 -194)"/></g></svg>