<svg xmlns="http://www.w3.org/2000/svg" viewBox="0 0 512 620"><defs><style>.cls-1,.cls-2,.cls-3,.cls-4{fill:none;stroke-miterlimit:10;stroke-width:10px;}.cls-1,.cls-2{stroke:#999;}.cls-1,.cls-3{stroke-linecap:round;}.cls-3,.cls-4{stroke:#000;}</style></defs><title>Icosohedron</title><g id="Layer_3" data-name="Layer 3"><line class="cls-1" x1="256" y1="5" x2="318" y2="88"/><line class="cls-2" x1="256" y1="612" x2="256" y2="498"/><line class="cls-2" x1="507" y1="470" x2="256" y2="498"/><line class="cls-2" x1="5" y1="471" x2="256" y2="498"/><line class="cls-1" x1="193" y1="89" x2="256" y2="5"/></g><g id="Layer_2" data-name="Layer 2"><line class="cls-3" x1="130" y1="77" x2="256" y2="5"/><line class="cls-3" x1="381" y1="77" x2="256" y2="5"/><line class="cls-3" x1="256" y1="5" x2="256" y2="113"/><line class="cls-3" x1="507" y1="470" x2="446" y2="324"/><line class="cls-3" x1="256" y1="615" x2="507" y2="470"/><line class="cls-3" x1="5" y1="471" x2="256" y2="615"/><line class="cls-3" x1="68" y1="324" x2="5" y2="471"/><line class="cls-3" x1="359" y1="324" x2="409" y2="410"/><line class="cls-4" x1="507" y1="470" x2="409" y2="410"/><line class="cls-4" x1="5" y1="471" x2="105" y2="410"/><line class="cls-3" x1="409" y1="410" x2="105" y2="410"/><line class="cls-3" x1="155" y1="323" x2="105" y2="410"/><line class="cls-4" x1="409" y1="410" x2="256" y2="612"/><line class="cls-4" x1="105" y1="410" x2="256" y2="612"/><path class="cls-3" d="M471.2,197.52" transform="translate(-244 -176)"/></g></svg>