<svg id="Layer_1" data-name="Layer 1" xmlns="http://www.w3.org/2000/svg" xmlns:xlink="http://www.w3.org/1999/xlink" viewBox="0 0 566.65 401.43"><defs><style>.cls-1{fill:#bfdaf5;}.cls-1,.cls-2,.cls-3,.cls-4,.cls-5,.cls-6,.cls-7,.cls-8,.cls-9{stroke:#000;stroke-linecap:round;stroke-miterlimit:10;stroke-width:5px;}.cls-3{fill:#9fe2ff;}.cls-4{fill:none;}.cls-5{fill:url(#Sky);}.cls-6{fill:url(#Sky-2);}.cls-7{fill:#ffd3e5;}.cls-8{fill:#ff7bac;opacity:0.2;}.cls-9{fill:#fec;}</style><linearGradient id="Sky" x1="310.5" y1="343.5" x2="310.5" y2="343.5" gradientUnits="userSpaceOnUse"><stop offset="0" stop-color="#cce0f4"/><stop offset="0.06" stop-color="#c3dcf2"/><stop offset="0.17" stop-color="#a9d2ee"/><stop offset="0.31" stop-color="#80c2e7"/><stop offset="0.46" stop-color="#47acde"/><stop offset="0.57" stop-color="#1e9cd7"/><stop offset="0.87" stop-color="#0075be"/><stop offset="0.99" stop-color="#005b97"/></linearGradient><linearGradient id="Sky-2" x1="403.5" y1="364.5" x2="403.5" y2="364.5" xlink:href="#Sky"/></defs><title>Marwlv2</title><path class="cls-1" d="M640.51,610.92c-33.83,29.47-50.36,38.2-66.45,43.76-49.91,17.21-95.52,3.73-123.19-4.86-106.61-33.1-169.5-122.49-163.7-129.67,4.18-5.17,45.71,30.54,61.59,17.83,11.54-9.24-5.95-31.59-1.62-68.07,6.25-52.66,54.24-87.68,62.54-94,2.6-2,5.32-3.83,5.32-3.83s7.34-5.08,14.8-9.19c9.42-5.18,25.3-11.41,37.28-14.59,15.16-4,51-11.32,92.39,0,45.46,12.45,104.79,49.36,115.08,102.12,4.89,25.07-3.63,41.72,6.48,48.62,20.88,14.25,75.52-44.08,82.66-37.28C771.44,469.19,715.39,545.7,640.51,610.92Z" transform="translate(-200.26 -264.07)"/><path class="cls-2" d="M433.05,448.84c-6.78-1.37-15.39,1.5-17.83,8.1-2.9,7.8,3.8,18.14,13,19.45,9,1.28,18.19-6.37,17.83-14.59C445.72,455.09,439.12,450.06,433.05,448.84Z" transform="translate(-200.26 -264.07)"/><path class="cls-2" d="M519,437.49c-7.56,1.15-14.09,8.56-13,16.21,1.25,8.54,11.45,13.4,19.45,11.34,5.7-1.46,11.16-6.65,11.35-13C537,443.68,527.86,436.14,519,437.49Z" transform="translate(-200.26 -264.07)"/><path class="cls-3" d="M464.5,529.5" transform="translate(-200.26 -264.07)"/><path class="cls-3" d="M462.5,529.5" transform="translate(-200.26 -264.07)"/><path class="cls-4" d="M448,495.57c4.44,8.58,10.14,17.42,14.9,16.55,6.51-1.19,5.56-19.59,13.24-21.52,8.58-2.15,18,18.76,24.83,16.56,2.35-.76,5.08-4.49,5-19.87" transform="translate(-200.26 -264.07)"/><path class="cls-3" d="M522.5,513.5" transform="translate(-200.26 -264.07)"/><path class="cls-5" d="M310.5,343.5" transform="translate(-200.26 -264.07)"/><path class="cls-6" d="M403.5,364.5" transform="translate(-200.26 -264.07)"/><path class="cls-4" d="M414.5,372.5a130.47,130.47,0,0,0-50-52c-35.89-20.63-70.7-17.5-82-16" transform="translate(-200.26 -264.07)"/><path class="cls-7" d="M203.42,310c-3.16-14.88,5.3-31.07,17.91-38.5a35,35,0,0,1,12.28-4.42c16.88-2.69,43.65,5.76,48.61,27.7,3.73,16.5-6.37,34.06-20.6,41.19C239.6,347,208.3,333,203.42,310Z" transform="translate(-200.26 -264.07)"/><path class="cls-8" d="M246.5,245.5" transform="translate(-200.26 -264.07)"/><path class="cls-9" d="M499.5,558.5c-32.52,7.44-48.82,11.35-51,21-3.42,15.14,26.27,37.85,55,44,7.12,1.52,37.39,8,62-12,18.85-15.32,32.41-44.56,23-58C579.23,540.26,550.78,546.77,499.5,558.5Z" transform="translate(-200.26 -264.07)"/></svg>